<svg width="153" height="35" viewBox="0 0 153 35" fill="none" xmlns="http://www.w3.org/2000/svg">
<g clip-path="url(#clip0_4661_14291)">
<path fill-rule="evenodd" clip-rule="evenodd" d="M4.67209 7.86243C5.09031 7.86243 5.49657 7.99387 5.8431 8.23285C6.18962 8.47183 6.46445 8.8064 6.61978 9.20072C6.77512 9.59504 6.82292 10.0252 6.73927 10.4554C6.65563 10.8736 6.4525 11.256 6.15377 11.5666C5.85505 11.8654 5.48463 12.0685 5.06641 12.1521C4.6482 12.2358 4.22998 12.188 3.84761 12.0327C3.46524 11.8654 3.13067 11.5905 2.90364 11.2321C2.67661 10.8736 2.54517 10.4554 2.54517 10.0252C2.54517 9.73843 2.60492 9.4636 2.71246 9.20072C2.82 8.93784 2.97533 8.69886 3.16652 8.49573C3.3577 8.29259 3.59668 8.13726 3.84761 8.02972C4.09854 7.92218 4.38532 7.86243 4.66014 7.86243" fill="#37BEE5"/>
<path fill-rule="evenodd" clip-rule="evenodd" d="M22.1296 18.8436C19.6322 16.6928 17.2544 13.3948 15.1633 15.6891C13.586 17.4217 15.1991 18.748 16.0356 19.5605C18.2103 21.7353 21.0542 24.6747 23.3842 26.6582C24.1609 27.3154 24.7106 27.4947 25.2841 27.6261C27.0048 28.0204 27.9846 26.5029 27.65 25.0212C27.3393 23.5993 25.6426 22.1774 25.32 22.0101C26.5268 20.2894 27.3035 18.2939 27.5783 16.1909C27.9726 13.4068 27.4947 10.5629 26.2281 8.06558C24.4118 4.52867 21.1259 2.25836 18.6166 1.48168C17.2544 1.06346 16.0117 1.20685 15.3903 1.67286C14.6495 2.21057 14.2791 3.48911 14.8885 4.52868C14.996 4.71986 15.1394 4.8752 15.3067 5.00664C15.474 5.13807 15.6652 5.22172 15.8683 5.28146C16.7406 5.49654 18.4612 5.95061 19.931 7.14551C21.556 8.42405 22.6912 10.2403 23.1452 12.2955C23.6471 14.4942 23.2169 17.2066 22.1415 18.8555" fill="#37BEE5"/>
<path fill-rule="evenodd" clip-rule="evenodd" d="M3.05898 14.8885C1.82823 15.4142 1.63704 16.5374 1.88797 17.7204C2.29424 19.6203 3.87151 22.261 5.09031 23.5276C6.90656 25.3917 9.09323 26.7897 11.6622 27.3393C13.7653 27.7934 16.0595 27.8054 17.3141 27.3752C19.1304 26.7538 19.441 23.2408 16.4299 23.193C15.94 23.193 15.4023 23.2289 14.8168 23.2528C13.6458 23.3006 12.4867 23.1094 11.3874 22.6912C10.2881 22.273 9.29636 21.6397 8.43603 20.8152C7.73104 20.158 7.14554 19.3693 6.72733 18.4851C6.46445 17.9355 6.22547 17.3619 6.02233 16.7884C5.91479 16.4538 5.92674 16.1312 5.72361 15.7846C5.44878 15.3306 5.03056 14.996 4.54065 14.8407C4.05074 14.6734 3.52499 14.6973 3.04703 14.9004L3.05898 14.8885Z" fill="#37BEE5"/>
<path fill-rule="evenodd" clip-rule="evenodd" d="M11.7578 8.85424C12.415 8.85424 13.0483 9.04542 13.586 9.41584C14.1237 9.78626 14.5539 10.312 14.8048 10.9333C15.0558 11.5547 15.1155 12.2238 14.996 12.881C14.8646 13.5382 14.5539 14.1357 14.0998 14.6136C13.6458 15.0916 13.0483 15.4023 12.415 15.5337C11.7817 15.6652 11.1126 15.5935 10.5151 15.3425C9.91771 15.0916 9.4039 14.6495 9.03348 14.0998C8.67501 13.5502 8.48383 12.893 8.48383 12.2238C8.48383 11.3277 8.83035 10.4673 9.4517 9.83405C10.073 9.20075 10.9094 8.84229 11.7817 8.84229L11.7578 8.85424Z" fill="#37BEE5"/>
<path fill-rule="evenodd" clip-rule="evenodd" d="M8.53162 0C9.03348 0 9.53534 0.155337 9.95356 0.442113C10.3717 0.72889 10.7063 1.1471 10.8975 1.62507C11.0887 2.10303 11.1484 2.62878 11.0409 3.14259C10.9453 3.6564 10.6944 4.12241 10.3359 4.49283C9.97745 4.86325 9.52338 5.11418 9.02152 5.20977C8.51966 5.30536 8.00587 5.25757 7.53986 5.05443C7.07384 4.8513 6.66758 4.51673 6.39275 4.08656C6.10598 3.6564 5.96259 3.14259 5.96259 2.62878C5.96259 1.93574 6.23742 1.26659 6.71538 0.764736C7.19334 0.274827 7.85053 0 8.53162 0Z" fill="#37BEE5"/>
<path fill-rule="evenodd" clip-rule="evenodd" d="M1.61312 2.93945C1.93574 2.93945 2.24641 3.03504 2.50929 3.21427C2.77217 3.39351 2.98725 3.65639 3.10674 3.95511C3.22623 4.25384 3.26208 4.58841 3.20234 4.91103C3.14259 5.23366 2.98725 5.53238 2.76022 5.75941C2.53319 5.98645 2.24641 6.15373 1.93574 6.21348C1.62507 6.27322 1.30244 6.24932 1.00372 6.11788C0.704992 5.99839 0.454063 5.78331 0.274828 5.50848C0.0955927 5.23366 0 4.91103 0 4.58841C0 4.1463 0.167287 3.72808 0.477961 3.41741C0.776686 3.10673 1.1949 2.93945 1.61312 2.93945Z" fill="#37BEE5"/>
<path d="M65.8032 5.53241H62.338V22.1535H65.8032V5.53241Z" fill="#19247E"/>
<path d="M89.988 5.53241H72.6739V8.99763H79.6043V22.1535H83.0576V8.99763H89.988V5.53241Z" fill="#19247E"/>
<path d="M99.6428 22.1535C98.6391 22.1774 97.6473 22.0698 96.6675 21.8428C95.9625 21.6875 95.3053 21.3529 94.7676 20.8749C94.2777 20.397 93.9312 19.7876 93.7519 19.1184C93.5369 18.2461 93.4293 17.35 93.4532 16.4538V11.244C93.4413 10.3478 93.5369 9.45168 93.7519 8.59135C93.9192 7.9222 94.2658 7.30085 94.7676 6.82289C95.3173 6.34492 95.9625 6.01035 96.6675 5.85502C97.6473 5.62798 98.6391 5.52045 99.6428 5.54435H103.837V8.68693H99.6428C99.2126 8.68693 98.7825 8.72278 98.3643 8.81837C98.0655 8.89007 97.7907 9.03345 97.5637 9.24854C97.3605 9.46362 97.2172 9.7265 97.1574 10.0252C97.0857 10.4315 97.0499 10.8378 97.0618 11.244V12.3672H110.767V15.3186H97.0618V16.4896C97.0618 16.9079 97.0857 17.3141 97.1694 17.7323C97.2291 18.0311 97.3605 18.2939 97.5637 18.509C97.7907 18.7241 98.0655 18.8555 98.3643 18.9153C98.7944 18.9989 99.2246 19.0348 99.6548 19.0228H110.767V22.1654H99.6428V22.1535Z" fill="#19247E"/>
<path d="M120.482 22.1535C119.478 22.1774 118.474 22.0698 117.495 21.8428C116.79 21.6875 116.132 21.3529 115.583 20.8749C115.093 20.397 114.734 19.7876 114.567 19.1184C114.352 18.2461 114.245 17.35 114.268 16.4538V11.244C114.256 10.3478 114.352 9.45168 114.567 8.59135C114.734 7.9222 115.081 7.30085 115.583 6.82289C116.132 6.34492 116.79 6.01035 117.495 5.85502C118.474 5.62798 119.478 5.52045 120.482 5.54435H131.559V8.73473H120.649C120.183 8.73473 119.729 8.77057 119.275 8.86617C118.952 8.93786 118.666 9.0932 118.427 9.32023C118.212 9.55921 118.056 9.84598 117.996 10.1567C117.913 10.5749 117.865 11.005 117.877 11.4352V16.3104C117.877 16.7406 117.913 17.1827 117.996 17.6009C118.056 17.9116 118.212 18.1983 118.427 18.4254C118.666 18.6524 118.964 18.8077 119.287 18.8675C119.741 18.9511 120.207 18.9989 120.673 18.987H131.559V22.1535H120.482Z" fill="#19247E"/>
<path d="M152.302 18.6883H148.849V22.1535H152.302V18.6883Z" fill="#19247E"/>
<path d="M148.849 5.53241V12.1163H138.453V5.53241H134.988V22.1535H138.453V15.5815H148.849V17.8279H152.302V5.53241H148.849Z" fill="#19247E"/>
<path d="M58.825 24.2326L54.834 21.2931C55.0371 21.1617 55.2283 21.0303 55.4195 20.863C55.9214 20.385 56.2798 19.7756 56.4471 19.0945C56.6622 18.2222 56.7698 17.338 56.7578 16.4418V11.2321C56.7698 10.3359 56.6742 9.43971 56.4471 8.56743C56.2798 7.89829 55.9214 7.28889 55.4195 6.81093C55.2283 6.64364 55.0133 6.4883 54.7982 6.35686C54.3919 6.11788 53.9617 5.93865 53.4957 5.84306C52.504 5.61603 51.5002 5.50848 50.4846 5.53238H43.6617C42.897 5.56823 42.1322 5.67577 41.3794 5.84306C40.9134 5.93865 40.4833 6.11788 40.077 6.35686C39.8619 6.4883 39.6468 6.64364 39.4556 6.81093C38.9538 7.28889 38.5953 7.89829 38.428 8.57938C38.2129 9.45166 38.1054 10.3359 38.1173 11.2321V16.4418C38.1054 17.338 38.201 18.2342 38.428 19.1065C38.5953 19.7756 38.9538 20.385 39.4556 20.863C39.6468 21.0303 39.8619 21.1856 40.077 21.317C40.4833 21.556 40.9134 21.7353 41.3794 21.8308C42.3712 22.0579 43.3749 22.1654 44.3906 22.1415H51.0581L54.3083 24.2206H58.825V24.2326ZM43.1837 18.8555C42.8611 18.7958 42.5624 18.6405 42.3115 18.4134C42.0964 18.1864 41.941 17.8996 41.8813 17.5889C41.7976 17.1588 41.7498 16.7286 41.7618 16.2985V11.4233C41.7618 10.9931 41.7976 10.5629 41.8813 10.1447C41.941 9.82208 42.0964 9.5353 42.3115 9.30827C42.5504 9.08124 42.8492 8.9259 43.1718 8.85421C43.6258 8.75861 44.0919 8.71082 44.5579 8.72277H50.843C51.1179 8.74667 51.4047 8.77057 51.6795 8.83031C52.0021 8.89006 52.3008 9.04539 52.5518 9.27242C52.7668 9.49945 52.9222 9.78623 52.9819 10.0969C53.0656 10.5271 53.1134 10.9572 53.1014 11.3874V16.2626C53.1014 16.6928 53.0656 17.1229 52.9819 17.5411C52.9222 17.8638 52.7668 18.1505 52.5518 18.3776C52.3128 18.6046 52.014 18.7599 51.6914 18.8316C51.2374 18.9272 50.7714 18.975 50.3053 18.9631H44.0202C43.7453 18.9392 43.4586 18.9153 43.1837 18.8555Z" fill="#19247E"/>
<path d="M39.6908 32.783V25.6638H40.6273V32.783H39.6908Z" fill="#19247E"/>
<path d="M42.1053 32.783V27.6324H42.9749V28.6357L42.8316 28.5497C42.959 28.2248 43.1628 27.9732 43.4431 27.7948C43.7298 27.6101 44.0643 27.5177 44.4465 27.5177C44.816 27.5177 45.1441 27.6005 45.4308 27.7661C45.7238 27.9318 45.9532 28.1611 46.1188 28.4542C46.2908 28.7472 46.3768 29.0785 46.3768 29.448V32.783H45.4786V29.7347C45.4786 29.448 45.4276 29.2059 45.3257 29.0084C45.2237 28.8109 45.0772 28.658 44.8861 28.5497C44.7013 28.4351 44.4879 28.3777 44.2459 28.3777C44.0038 28.3777 43.7872 28.4351 43.596 28.5497C43.4113 28.658 43.2648 28.8141 43.1565 29.018C43.0482 29.2155 42.994 29.4544 42.994 29.7347V32.783H42.1053Z" fill="#19247E"/>
<path d="M49.4928 32.8977C48.9768 32.8977 48.5277 32.7703 48.1454 32.5154C47.7632 32.2606 47.4924 31.9166 47.3332 31.4834L48.0403 31.1394C48.1868 31.4452 48.3875 31.6873 48.6423 31.8656C48.8972 32.044 49.1807 32.1332 49.4928 32.1332C49.7731 32.1332 50.0057 32.0663 50.1904 31.9325C50.3752 31.7988 50.4675 31.6236 50.4675 31.407C50.4675 31.2541 50.4229 31.133 50.3337 31.0438C50.2509 30.9483 50.149 30.875 50.028 30.824C49.9069 30.7667 49.7954 30.7253 49.6935 30.6998L48.9195 30.48C48.4544 30.3462 48.1136 30.1551 47.897 29.9067C47.6867 29.6582 47.5816 29.3684 47.5816 29.0371C47.5816 28.7313 47.6581 28.4669 47.811 28.2439C47.9702 28.0146 48.1837 27.8362 48.4512 27.7088C48.7252 27.5814 49.0309 27.5177 49.3686 27.5177C49.8209 27.5177 50.2254 27.6324 50.5822 27.8617C50.9453 28.091 51.2033 28.4128 51.3562 28.8268L50.63 29.1613C50.5153 28.8937 50.3433 28.6835 50.114 28.5306C49.8846 28.3713 49.6266 28.2917 49.3399 28.2917C49.0787 28.2917 48.8717 28.3586 48.7188 28.4924C48.5659 28.6198 48.4894 28.7823 48.4894 28.9797C48.4894 29.1263 48.5277 29.2473 48.6041 29.3429C48.6806 29.4321 48.7729 29.5021 48.8812 29.5531C48.9895 29.5977 49.0947 29.6359 49.1966 29.6678L50.0375 29.9162C50.458 30.0373 50.7829 30.2252 51.0122 30.48C51.2479 30.7349 51.3658 31.0406 51.3658 31.3974C51.3658 31.6841 51.2862 31.9421 51.1269 32.1714C50.9676 32.4008 50.7478 32.5792 50.4675 32.7066C50.1872 32.834 49.8623 32.8977 49.4928 32.8977Z" fill="#19247E"/>
<path d="M54.6219 32.8404C54.1186 32.8404 53.73 32.697 53.4561 32.4103C53.1885 32.1237 53.0547 31.7191 53.0547 31.1967V28.4828H52.1182V27.6324H52.3094C52.5387 27.6324 52.7203 27.5623 52.8541 27.4221C52.9878 27.282 53.0547 27.0972 53.0547 26.8679V26.4474H53.9434V27.6324H55.0997V28.4828H53.9434V31.1681C53.9434 31.3401 53.9689 31.4898 54.0199 31.6172C54.0772 31.7446 54.1696 31.8465 54.297 31.923C54.4244 31.9931 54.5932 32.0281 54.8035 32.0281C54.8481 32.0281 54.9022 32.0249 54.9659 32.0185C55.036 32.0122 55.0997 32.0058 55.157 31.9994V32.783C55.0742 32.8021 54.9818 32.8149 54.8799 32.8212C54.778 32.834 54.692 32.8404 54.6219 32.8404Z" fill="#19247E"/>
<path d="M56.3179 32.783V27.6324H57.2066V32.783H56.3179ZM56.3179 26.8105V25.6638H57.2066V26.8105H56.3179Z" fill="#19247E"/>
<path d="M60.6784 32.8404C60.1751 32.8404 59.7865 32.697 59.5125 32.4103C59.245 32.1237 59.1112 31.7191 59.1112 31.1967V28.4828H58.1747V27.6324H58.3658C58.5952 27.6324 58.7767 27.5623 58.9105 27.4221C59.0443 27.282 59.1112 27.0972 59.1112 26.8679V26.4474H59.9999V27.6324H61.1562V28.4828H59.9999V31.1681C59.9999 31.3401 60.0254 31.4898 60.0763 31.6172C60.1337 31.7446 60.2261 31.8465 60.3535 31.923C60.4809 31.9931 60.6497 32.0281 60.8599 32.0281C60.9045 32.0281 60.9587 32.0249 61.0224 32.0185C61.0925 32.0122 61.1562 32.0058 61.2135 31.9994V32.783C61.1307 32.8021 61.0383 32.8149 60.9364 32.8212C60.8345 32.834 60.7484 32.8404 60.6784 32.8404Z" fill="#19247E"/>
<path d="M64.1996 32.8977C63.8301 32.8977 63.4956 32.8117 63.1962 32.6397C62.9032 32.4677 62.6738 32.2288 62.5082 31.923C62.3489 31.6108 62.2693 31.2541 62.2693 30.8527V27.6324H63.158V30.7572C63.158 31.012 63.209 31.235 63.3109 31.4261C63.4192 31.6172 63.5657 31.7669 63.7505 31.8752C63.9416 31.9835 64.1582 32.0377 64.4003 32.0377C64.6424 32.0377 64.8558 31.9835 65.0405 31.8752C65.2316 31.7669 65.3782 31.6108 65.4801 31.407C65.5884 31.2031 65.6425 30.961 65.6425 30.6807V27.6324H66.5408V32.783H65.6712V31.7796L65.8146 31.8656C65.6935 32.1905 65.4865 32.4454 65.1934 32.6301C64.9067 32.8085 64.5755 32.8977 64.1996 32.8977Z" fill="#19247E"/>
<path d="M67.9176 32.783V27.6324H68.8063V32.783H67.9176ZM67.9176 26.8105V25.6638H68.8063V26.8105H67.9176Z" fill="#19247E"/>
<path d="M72.5743 32.8977C72.071 32.8977 71.6219 32.7798 71.2269 32.5441C70.8383 32.3084 70.5325 31.9867 70.3095 31.579C70.0865 31.1712 69.9751 30.7126 69.9751 30.2029C69.9751 29.6869 70.0865 29.2282 70.3095 28.8268C70.5325 28.4255 70.8383 28.107 71.2269 27.8712C71.6219 27.6355 72.071 27.5177 72.5743 27.5177C72.9119 27.5177 73.2273 27.5782 73.5203 27.6992C73.8134 27.8203 74.0714 27.9827 74.2944 28.1866C74.5173 28.3905 74.6798 28.6294 74.7817 28.9033L73.9886 29.2855C73.8675 29.018 73.6828 28.8014 73.4343 28.6357C73.1859 28.4637 72.8992 28.3777 72.5743 28.3777C72.2621 28.3777 71.9786 28.4573 71.7238 28.6166C71.4753 28.7759 71.2778 28.9925 71.1313 29.2664C70.9848 29.5404 70.9115 29.8557 70.9115 30.2125C70.9115 30.5565 70.9848 30.8686 71.1313 31.1489C71.2778 31.4229 71.4753 31.6395 71.7238 31.7988C71.9786 31.958 72.2621 32.0377 72.5743 32.0377C72.8992 32.0377 73.1859 31.9548 73.4343 31.7892C73.6828 31.6172 73.8675 31.391 73.9886 31.1107L74.7817 31.5121C74.6798 31.7796 74.5173 32.0185 74.2944 32.2288C74.0714 32.4326 73.8134 32.5951 73.5203 32.7161C73.2273 32.8372 72.9119 32.8977 72.5743 32.8977ZM72.6889 35C72.5106 35 72.3258 34.9681 72.1347 34.9044C71.9436 34.8471 71.7875 34.7675 71.6665 34.6655L71.8862 34.0826C71.9818 34.1654 72.0901 34.2292 72.2111 34.2737C72.3322 34.3183 72.45 34.3406 72.5647 34.3406C72.7049 34.3406 72.8164 34.3056 72.8992 34.2355C72.982 34.1718 73.0234 34.0858 73.0234 33.9775C73.0234 33.8374 72.9501 33.7259 72.8036 33.6431C72.6571 33.5666 72.4246 33.5093 72.106 33.471L72.3258 32.6875H72.9087L72.8036 33.1175C73.1349 33.1812 73.3865 33.2927 73.5585 33.4519C73.7369 33.6112 73.8261 33.8055 73.8261 34.0348C73.8261 34.3215 73.7178 34.5541 73.5012 34.7324C73.291 34.9108 73.0202 35 72.6889 35Z" fill="#19247E"/>
<path d="M77.3876 32.8977C77.05 32.8977 76.7506 32.8372 76.4894 32.7161C76.2346 32.5887 76.0339 32.4167 75.8874 32.2001C75.7408 31.9771 75.6676 31.7223 75.6676 31.4356C75.6676 31.1617 75.7249 30.9164 75.8396 30.6998C75.9606 30.4768 76.1454 30.2889 76.3938 30.136C76.6486 29.9831 76.9672 29.8748 77.3494 29.8111L79.2606 29.4958V30.2411L77.5501 30.5278C77.2188 30.5851 76.9767 30.6903 76.8238 30.8432C76.6773 30.9961 76.6041 31.184 76.6041 31.407C76.6041 31.6172 76.6869 31.7924 76.8525 31.9325C77.0245 32.0727 77.2379 32.1428 77.4928 32.1428C77.8177 32.1428 78.098 32.0759 78.3337 31.9421C78.5758 31.8019 78.7637 31.614 78.8975 31.3783C79.0376 31.1426 79.1077 30.8814 79.1077 30.5947V29.2855C79.1077 29.0052 79.0026 28.7791 78.7924 28.6071C78.5885 28.4287 78.3178 28.3395 77.9801 28.3395C77.6871 28.3395 77.4259 28.4159 77.1965 28.5688C76.9736 28.7154 76.8079 28.9129 76.6996 29.1613L75.9256 28.76C76.0211 28.5242 76.174 28.314 76.3843 28.1293C76.5945 27.9381 76.8398 27.7884 77.1201 27.6801C77.4004 27.5718 77.6934 27.5177 77.9992 27.5177C78.3942 27.5177 78.7414 27.5941 79.0408 27.747C79.3402 27.8935 79.5728 28.1006 79.7384 28.3682C79.9104 28.6294 79.9964 28.9351 79.9964 29.2855V32.783H79.1268V31.8083L79.2893 31.8656C79.181 32.0695 79.0345 32.2479 78.8497 32.4008C78.665 32.5537 78.4484 32.6747 78.1999 32.7639C77.9514 32.8531 77.6807 32.8977 77.3876 32.8977ZM78.6108 26.6672C78.4388 26.6672 78.2986 26.6385 78.1903 26.5812C78.0884 26.5239 77.9992 26.457 77.9228 26.3805C77.8463 26.3041 77.7699 26.2372 77.6934 26.1798C77.617 26.1225 77.5246 26.0938 77.4163 26.0938C77.3144 26.0938 77.2316 26.1353 77.1679 26.2181C77.1105 26.2945 77.0819 26.4315 77.0819 26.629H76.3652C76.3652 26.2021 76.4575 25.8836 76.6423 25.6734C76.8334 25.4568 77.0787 25.3485 77.3781 25.3485C77.5501 25.3485 77.6903 25.3771 77.7986 25.4345C77.9069 25.4918 77.9992 25.5587 78.0757 25.6352C78.1521 25.7116 78.2254 25.7785 78.2955 25.8358C78.3719 25.8932 78.4643 25.9218 78.5726 25.9218C78.6873 25.9218 78.7764 25.8772 78.8402 25.788C78.9039 25.6925 78.9357 25.5587 78.9357 25.3867H79.6428C79.6428 25.7817 79.5473 26.0938 79.3562 26.3232C79.1651 26.5525 78.9166 26.6672 78.6108 26.6672Z" fill="#19247E"/>
<path d="M83.8207 32.8977C83.3238 32.8977 82.8746 32.783 82.4733 32.5537C82.0719 32.318 81.7534 31.9962 81.5177 31.5885C81.282 31.1808 81.1641 30.7189 81.1641 30.2029C81.1641 29.6869 81.2788 29.2282 81.5081 28.8268C81.7438 28.4255 82.0624 28.107 82.4637 27.8712C82.8651 27.6355 83.3174 27.5177 83.8207 27.5177C84.3176 27.5177 84.7667 27.6355 85.1681 27.8712C85.5694 28.1006 85.8848 28.4159 86.1141 28.8173C86.3498 29.2186 86.4677 29.6805 86.4677 30.2029C86.4677 30.7253 86.3466 31.1904 86.1045 31.5981C85.8625 31.9994 85.5407 32.318 85.1394 32.5537C84.7444 32.783 84.3048 32.8977 83.8207 32.8977ZM83.8207 32.0377C84.1392 32.0377 84.4259 31.958 84.6807 31.7988C84.9419 31.6395 85.1458 31.4197 85.2923 31.1394C85.4452 30.8591 85.5216 30.5469 85.5216 30.2029C85.5216 29.8525 85.4452 29.5435 85.2923 29.276C85.1458 29.002 84.9419 28.7854 84.6807 28.6262C84.4259 28.4605 84.1392 28.3777 83.8207 28.3777C83.4958 28.3777 83.2027 28.4605 82.9415 28.6262C82.6867 28.7854 82.4828 29.002 82.3299 29.276C82.177 29.5435 82.1006 29.8525 82.1006 30.2029C82.1006 30.5469 82.177 30.8591 82.3299 31.1394C82.4828 31.4197 82.6867 31.6395 82.9415 31.7988C83.2027 31.958 83.4958 32.0377 83.8207 32.0377Z" fill="#19247E"/>
<path d="M89.8232 32.783V28.4828H88.839V27.6324H89.8232V27.2692C89.8232 26.8997 89.9029 26.5876 90.0621 26.3327C90.2278 26.0779 90.4444 25.8836 90.7119 25.7498C90.9859 25.616 91.2885 25.5492 91.6198 25.5492C91.6898 25.5492 91.7663 25.5555 91.8491 25.5683C91.9383 25.5746 92.0115 25.5842 92.0689 25.5969V26.3901C92.0179 26.3773 91.9574 26.371 91.8873 26.371C91.8172 26.3646 91.7631 26.3614 91.7249 26.3614C91.4318 26.3614 91.1897 26.4315 90.9986 26.5716C90.8139 26.7118 90.7215 26.9443 90.7215 27.2692V27.6324H93.3972V28.4828H90.7215V32.783H89.8232ZM92.8429 32.783V27.6324H93.7412V32.783H92.8429Z" fill="#19247E"/>
<path d="M94.9711 32.783V27.6324H95.8407V28.6357L95.6973 28.5497C95.8247 28.2248 96.0286 27.9732 96.3089 27.7948C96.5956 27.6101 96.93 27.5177 97.3123 27.5177C97.6818 27.5177 98.0099 27.6005 98.2965 27.7661C98.5896 27.9318 98.8189 28.1611 98.9846 28.4542C99.1566 28.7472 99.2426 29.0785 99.2426 29.448V32.783H98.3443V29.7347C98.3443 29.448 98.2934 29.2059 98.1914 29.0084C98.0895 28.8109 97.943 28.658 97.7518 28.5497C97.5671 28.4351 97.3537 28.3777 97.1116 28.3777C96.8695 28.3777 96.6529 28.4351 96.4618 28.5497C96.277 28.658 96.1305 28.8141 96.0222 29.018C95.9139 29.2155 95.8598 29.4544 95.8598 29.7347V32.783H94.9711Z" fill="#19247E"/>
<path d="M102.024 32.8977C101.686 32.8977 101.387 32.8372 101.126 32.7161C100.871 32.5887 100.67 32.4167 100.524 32.2001C100.377 31.9771 100.304 31.7223 100.304 31.4356C100.304 31.1617 100.361 30.9164 100.476 30.6998C100.597 30.4768 100.782 30.2889 101.03 30.136C101.285 29.9831 101.604 29.8748 101.986 29.8111L103.897 29.4958V30.2411L102.187 30.5278C101.855 30.5851 101.613 30.6903 101.46 30.8432C101.314 30.9961 101.241 31.184 101.241 31.407C101.241 31.6172 101.323 31.7924 101.489 31.9325C101.661 32.0727 101.874 32.1428 102.129 32.1428C102.454 32.1428 102.734 32.0759 102.97 31.9421C103.212 31.8019 103.4 31.614 103.534 31.3783C103.674 31.1426 103.744 30.8814 103.744 30.5947V29.2855C103.744 29.0052 103.639 28.7791 103.429 28.6071C103.225 28.4287 102.954 28.3395 102.617 28.3395C102.324 28.3395 102.062 28.4159 101.833 28.5688C101.61 28.7154 101.444 28.9129 101.336 29.1613L100.562 28.76C100.658 28.5242 100.811 28.314 101.021 28.1293C101.231 27.9381 101.476 27.7884 101.757 27.6801C102.037 27.5718 102.33 27.5177 102.636 27.5177C103.031 27.5177 103.378 27.5941 103.677 27.747C103.977 27.8935 104.209 28.1006 104.375 28.3682C104.547 28.6294 104.633 28.9351 104.633 29.2855V32.783H103.763V31.8083L103.926 31.8656C103.817 32.0695 103.671 32.2479 103.486 32.4008C103.301 32.5537 103.085 32.6747 102.836 32.7639C102.588 32.8531 102.317 32.8977 102.024 32.8977Z" fill="#19247E"/>
<path d="M106.011 32.783V27.6324H106.88V28.6357L106.737 28.5497C106.864 28.2248 107.068 27.9732 107.349 27.7948C107.635 27.6101 107.97 27.5177 108.352 27.5177C108.722 27.5177 109.05 27.6005 109.336 27.7661C109.629 27.9318 109.859 28.1611 110.024 28.4542C110.196 28.7472 110.282 29.0785 110.282 29.448V32.783H109.384V29.7347C109.384 29.448 109.333 29.2059 109.231 29.0084C109.129 28.8109 108.983 28.658 108.792 28.5497C108.607 28.4351 108.393 28.3777 108.151 28.3777C107.909 28.3777 107.693 28.4351 107.502 28.5497C107.317 28.658 107.17 28.8141 107.062 29.018C106.954 29.2155 106.9 29.4544 106.9 29.7347V32.783H106.011Z" fill="#19247E"/>
<path d="M113.943 32.8977C113.44 32.8977 112.991 32.7798 112.596 32.5441C112.207 32.3084 111.901 31.9867 111.678 31.579C111.455 31.1712 111.344 30.7126 111.344 30.2029C111.344 29.6869 111.455 29.2282 111.678 28.8268C111.901 28.4255 112.207 28.107 112.596 27.8712C112.991 27.6355 113.44 27.5177 113.943 27.5177C114.281 27.5177 114.596 27.5782 114.889 27.6992C115.182 27.8203 115.44 27.9827 115.663 28.1866C115.886 28.3905 116.049 28.6294 116.15 28.9033L115.357 29.2855C115.236 29.018 115.051 28.8014 114.803 28.6357C114.555 28.4637 114.268 28.3777 113.943 28.3777C113.631 28.3777 113.347 28.4573 113.093 28.6166C112.844 28.7759 112.647 28.9925 112.5 29.2664C112.354 29.5404 112.28 29.8557 112.28 30.2125C112.28 30.5565 112.354 30.8686 112.5 31.1489C112.647 31.4229 112.844 31.6395 113.093 31.7988C113.347 31.958 113.631 32.0377 113.943 32.0377C114.268 32.0377 114.555 31.9548 114.803 31.7892C115.051 31.6172 115.236 31.391 115.357 31.1107L116.15 31.5121C116.049 31.7796 115.886 32.0185 115.663 32.2288C115.44 32.4326 115.182 32.5951 114.889 32.7161C114.596 32.8372 114.281 32.8977 113.943 32.8977Z" fill="#19247E"/>
<path d="M119.682 32.8977C119.185 32.8977 118.742 32.7798 118.353 32.5441C117.965 32.3084 117.659 31.9867 117.436 31.579C117.213 31.1649 117.102 30.703 117.102 30.1933C117.102 29.6773 117.21 29.2186 117.427 28.8173C117.65 28.4159 117.949 28.1006 118.325 27.8712C118.707 27.6355 119.134 27.5177 119.605 27.5177C119.988 27.5177 120.325 27.5878 120.618 27.7279C120.918 27.8617 121.169 28.0464 121.373 28.2822C121.583 28.5115 121.743 28.7759 121.851 29.0753C121.966 29.3684 122.023 29.6741 122.023 29.9927C122.023 30.0628 122.017 30.1424 122.004 30.2316C121.997 30.3144 121.988 30.394 121.975 30.4705H117.751V29.706H121.459L121.039 30.05C121.096 29.7187 121.064 29.4225 120.943 29.1613C120.822 28.9001 120.644 28.6931 120.408 28.5402C120.172 28.3873 119.905 28.3108 119.605 28.3108C119.306 28.3108 119.032 28.3873 118.783 28.5402C118.535 28.6931 118.341 28.9129 118.201 29.1995C118.067 29.4798 118.013 29.8143 118.038 30.2029C118.013 30.5788 118.07 30.91 118.21 31.1967C118.357 31.477 118.561 31.6968 118.822 31.8561C119.089 32.009 119.379 32.0854 119.691 32.0854C120.035 32.0854 120.325 32.0058 120.561 31.8465C120.797 31.6873 120.988 31.4834 121.134 31.2349L121.88 31.6172C121.778 31.8529 121.618 32.0695 121.402 32.267C121.192 32.4581 120.94 32.611 120.647 32.7257C120.36 32.8404 120.038 32.8977 119.682 32.8977Z" fill="#19247E"/>
<path d="M123.182 32.783V27.6324H124.07V32.783H123.182ZM123.182 26.8105V25.6638H124.07V26.8105H123.182Z" fill="#19247E"/>
<path d="M125.449 32.783V27.6324H126.319V28.5784L126.223 28.4446C126.344 28.1516 126.529 27.935 126.778 27.7948C127.026 27.6483 127.329 27.575 127.685 27.575H128.001V28.4159H127.552C127.189 28.4159 126.895 28.5306 126.673 28.76C126.45 28.9829 126.338 29.3015 126.338 29.7156V32.783H125.449Z" fill="#19247E"/>
<path d="M130.3 32.8977C129.962 32.8977 129.663 32.8372 129.402 32.7161C129.147 32.5887 128.946 32.4167 128.8 32.2001C128.653 31.9771 128.58 31.7223 128.58 31.4356C128.58 31.1617 128.637 30.9164 128.752 30.6998C128.873 30.4768 129.058 30.2889 129.306 30.136C129.561 29.9831 129.88 29.8748 130.262 29.8111L132.173 29.4958V30.2411L130.463 30.5278C130.131 30.5851 129.889 30.6903 129.736 30.8432C129.59 30.9961 129.516 31.184 129.516 31.407C129.516 31.6172 129.599 31.7924 129.765 31.9325C129.937 32.0727 130.15 32.1428 130.405 32.1428C130.73 32.1428 131.01 32.0759 131.246 31.9421C131.488 31.8019 131.676 31.614 131.81 31.3783C131.95 31.1426 132.02 30.8814 132.02 30.5947V29.2855C132.02 29.0052 131.915 28.7791 131.705 28.6071C131.501 28.4287 131.23 28.3395 130.893 28.3395C130.599 28.3395 130.338 28.4159 130.109 28.5688C129.886 28.7154 129.72 28.9129 129.612 29.1613L128.838 28.76C128.934 28.5242 129.086 28.314 129.297 28.1293C129.507 27.9381 129.752 27.7884 130.032 27.6801C130.313 27.5718 130.606 27.5177 130.912 27.5177C131.307 27.5177 131.654 27.5941 131.953 27.747C132.253 27.8935 132.485 28.1006 132.651 28.3682C132.823 28.6294 132.909 28.9351 132.909 29.2855V32.783H132.039V31.8083L132.202 31.8656C132.093 32.0695 131.947 32.2479 131.762 32.4008C131.577 32.5537 131.361 32.6747 131.112 32.7639C130.864 32.8531 130.593 32.8977 130.3 32.8977Z" fill="#19247E"/>
<path d="M138.06 32.8977C137.684 32.8977 137.334 32.8308 137.009 32.697C136.684 32.5632 136.404 32.3753 136.168 32.1332C135.932 31.8848 135.757 31.5917 135.642 31.2541L136.435 30.9292C136.569 31.2859 136.779 31.563 137.066 31.7605C137.353 31.958 137.684 32.0568 138.06 32.0568C138.353 32.0568 138.614 31.9994 138.844 31.8848C139.073 31.7701 139.251 31.6044 139.379 31.3878C139.512 31.1712 139.579 30.91 139.579 30.6043C139.579 30.2921 139.512 30.0309 139.379 29.8207C139.251 29.6041 139.073 29.4384 138.844 29.3238C138.614 29.2091 138.35 29.1517 138.05 29.1517C137.955 29.1517 137.85 29.1581 137.735 29.1709C137.627 29.1836 137.534 29.2027 137.458 29.2282L137.257 28.7982L139.159 26.4761H136.005V25.6638H140.22V26.4474L138.404 28.6835L138.347 28.4351C138.773 28.4478 139.149 28.5465 139.474 28.7313C139.799 28.916 140.054 29.1677 140.239 29.4862C140.423 29.7984 140.516 30.1647 140.516 30.5851C140.516 31.0183 140.411 31.4101 140.2 31.7605C139.99 32.1109 139.7 32.388 139.331 32.5919C138.961 32.7958 138.538 32.8977 138.06 32.8977Z" fill="#19247E"/>
<path d="M141.599 32.783V32.1332L143.568 30.0022C143.956 29.5881 144.265 29.2473 144.494 28.9797C144.73 28.7122 144.902 28.4733 145.01 28.263C145.119 28.0528 145.173 27.8298 145.173 27.5941C145.173 27.2055 145.058 26.9061 144.829 26.6959C144.6 26.4856 144.297 26.3805 143.921 26.3805C143.539 26.3805 143.214 26.492 142.946 26.715C142.679 26.9316 142.494 27.2406 142.392 27.6419L141.542 27.4221C141.624 27.0399 141.777 26.7086 142 26.4283C142.223 26.148 142.5 25.9314 142.832 25.7785C143.163 25.6256 143.526 25.5492 143.921 25.5492C144.354 25.5492 144.733 25.6352 145.058 25.8072C145.39 25.9728 145.648 26.2053 145.832 26.5047C146.023 26.8042 146.119 27.1514 146.119 27.5463C146.119 27.8075 146.065 28.0624 145.957 28.3108C145.848 28.5593 145.689 28.8237 145.479 29.104C145.269 29.3779 144.995 29.6964 144.657 30.0596L142.899 31.9708H146.272V32.783H141.599Z" fill="#19247E"/>
<path d="M148.027 32.783L150.483 29.5818L150.655 29.6009C150.559 29.7283 150.454 29.8302 150.339 29.9067C150.225 29.9767 150.097 30.0277 149.957 30.0596C149.823 30.0914 149.677 30.1073 149.517 30.1073C149.097 30.1073 148.718 30.0118 148.38 29.8207C148.049 29.6232 147.785 29.3556 147.587 29.018C147.396 28.674 147.3 28.2822 147.3 27.8426C147.3 27.403 147.402 27.0112 147.606 26.6672C147.81 26.3232 148.09 26.0524 148.447 25.8549C148.804 25.6511 149.205 25.5492 149.651 25.5492C150.11 25.5492 150.514 25.6511 150.865 25.8549C151.222 26.0524 151.502 26.3296 151.706 26.6863C151.91 27.0367 152.012 27.4412 152.012 27.8999C152.012 28.1484 151.983 28.3936 151.926 28.6357C151.868 28.8778 151.776 29.1231 151.648 29.3715C151.527 29.62 151.365 29.878 151.161 30.1456L149.154 32.783H148.027ZM149.651 29.2855C149.925 29.2855 150.167 29.225 150.377 29.104C150.594 28.9766 150.763 28.8045 150.884 28.5879C151.005 28.365 151.065 28.1165 151.065 27.8426C151.065 27.5559 151.002 27.3043 150.874 27.0877C150.753 26.8711 150.588 26.6991 150.377 26.5716C150.167 26.4442 149.925 26.3805 149.651 26.3805C149.384 26.3805 149.145 26.4442 148.934 26.5716C148.724 26.6991 148.555 26.8711 148.428 27.0877C148.307 27.3043 148.246 27.5559 148.246 27.8426C148.246 28.1165 148.307 28.365 148.428 28.5879C148.549 28.8045 148.715 28.9766 148.925 29.104C149.142 29.225 149.384 29.2855 149.651 29.2855Z" fill="#19247E"/>
</g>
<defs>
<clipPath id="clip0_4661_14291">
<rect width="153" height="35" fill="white"/>
</clipPath>
</defs>
</svg>
